<svg width="30" height="39" viewBox="0 0 30 39" fill="none" xmlns="http://www.w3.org/2000/svg">
<path d="M2.69812 17.8548H4.85904C6.29278 22.0647 10.2855 25.1013 14.9744 25.1013C18.3363 25.1013 21.3399 23.5397 23.2994 21.1044H26.0772C26.5928 21.1044 27.0106 20.6866 27.0106 20.1711V17.8548H27.4313C28.4437 17.8548 29.2672 17.0312 29.2672 16.0188V11.3248C29.2672 10.4303 28.6239 9.68349 27.7758 9.52174C27.1633 6.74743 25.655 4.38969 23.391 2.67952C21.0701 0.926585 18.1597 0 14.9743 0C8.50881 0 3.40906 3.82938 2.16304 9.56857C1.41086 9.79825 0.862152 10.4986 0.862152 11.3248V16.0188C0.862152 17.0312 1.68575 17.8548 2.69812 17.8548ZM2.72879 15.9881V11.3555H4.74063C4.44943 12.3264 4.29223 13.3547 4.29223 14.4191C4.29223 14.952 4.332 15.4758 4.40772 15.9881H2.72879ZM14.9743 23.2347C10.1134 23.2347 6.15879 19.28 6.15879 14.4191C6.15879 9.55818 10.1134 5.60366 14.9743 5.60366C19.8353 5.60366 23.7899 9.55826 23.7899 14.4191C23.7899 16.1963 23.2607 17.8518 22.3526 19.2378H14.4327C13.9173 19.2378 13.4994 19.6557 13.4994 20.1711C13.4994 20.6866 13.9173 21.1044 14.4327 21.1044H20.7142C19.1707 22.4314 17.1647 23.2347 14.9743 23.2347ZM25.1438 19.2378H24.5062C24.7316 18.7935 24.9272 18.3318 25.0896 17.8548H25.1438V19.2378H25.1438ZM27.4005 15.9881H25.5411C25.6168 15.4759 25.6566 14.952 25.6566 14.4191C25.6566 13.3547 25.4993 12.3264 25.2082 11.3555H27.4005V15.9881H27.4005ZM14.9743 1.86664C20.3543 1.86664 24.6123 4.89409 25.8458 9.48887H24.4485C22.664 6.07373 19.0872 3.73702 14.9743 3.73702C10.8615 3.73702 7.2847 6.07373 5.50019 9.48887H4.10264C5.33487 4.89693 9.60161 1.86664 14.9743 1.86664Z" fill="white"/>
<path d="M24.56 25.5122H5.37317C2.4104 25.5122 0 27.9225 0 30.8853V38.0665C0 38.582 0.417884 38.9998 0.933321 38.9998C1.44876 38.9998 1.86664 38.582 1.86664 38.0665V30.8853C1.86664 28.9519 3.43965 27.3788 5.37317 27.3788H24.56C26.4935 27.3788 28.0666 28.9519 28.0666 30.8854V38.0666C28.0666 38.5821 28.4844 38.9999 28.9999 38.9999C29.5154 38.9999 29.9332 38.5821 29.9332 38.0666V30.8854C29.9332 27.9226 27.5228 25.5122 24.56 25.5122Z" fill="white"/>
</svg>
