<svg width="27" height="22" viewBox="0 0 27 22" fill="none" xmlns="http://www.w3.org/2000/svg">
<path fill-rule="evenodd" clip-rule="evenodd" d="M22.3759 2.95926C20.0853 0.906971 17.9074 0.272705 17.9074 0.272705L13.514 15.142H13.4764L9.04546 0.272705C9.04546 0.272705 6.8675 0.888353 4.57692 2.95926C2.13612 5.16066 0.0333129 8.53754 0.390032 13.8919C0.671679 18.127 3.82593 21.7277 3.82593 21.7277L9.92793 21.709C9.92793 21.709 4.68961 18.9479 3.43166 14.6009C1.92962 9.47035 4.27654 5.90691 6.07898 4.20917C6.81123 3.57483 7.8814 3.42556 8.27566 4.78752C9.62749 9.13451 13.4952 21.5784 13.4952 21.5784L13.514 21.5785C13.514 21.5785 17.3629 9.13457 18.7335 4.78758C19.1466 3.42562 20.2168 3.57491 20.9302 4.20923C22.7326 5.90698 25.0795 9.47035 23.5775 14.601C22.3196 18.9479 17.0812 21.7091 17.0812 21.7091L23.1832 21.7278C23.1832 21.7278 26.3563 18.1084 26.6191 13.892C26.9383 8.53754 24.8354 5.16066 22.3759 2.95926Z" fill="white"/>
</svg>
