<svg width="14" height="14" viewBox="0 0 14 14" fill="none" xmlns="http://www.w3.org/2000/svg">
<path opacity="0.5" d="M12.25 6.78809C12.5234 6.97493 12.7673 7.18913 12.9814 7.43066C13.2002 7.66764 13.3848 7.92741 13.5352 8.20996C13.6855 8.48796 13.7995 8.78418 13.877 9.09863C13.959 9.41309 14 9.73438 14 10.0625C14 10.6048 13.8952 11.1152 13.6855 11.5938C13.4805 12.0723 13.2002 12.4893 12.8447 12.8447C12.4893 13.2002 12.0723 13.4827 11.5938 13.6924C11.1152 13.8975 10.6048 14 10.0625 14C9.64779 14 9.24674 13.9385 8.85938 13.8154C8.47201 13.6878 8.11426 13.5101 7.78613 13.2822C7.46257 13.0498 7.17546 12.7718 6.9248 12.4482C6.67871 12.1247 6.4873 11.7669 6.35059 11.375H0.875V0.875H2.625V0H3.5V0.875H9.625V0H10.5V0.875H12.25V6.78809ZM1.75 1.75V3.5H11.375V1.75H10.5V2.625H9.625V1.75H3.5V2.625H2.625V1.75H1.75ZM6.14551 10.5C6.13184 10.3587 6.125 10.2129 6.125 10.0625C6.125 9.67057 6.17969 9.29004 6.28906 8.9209C6.40299 8.55176 6.56934 8.20312 6.78809 7.875H6.125V7H7V7.58789C7.18685 7.35547 7.39421 7.15039 7.62207 6.97266C7.85449 6.79036 8.10059 6.6377 8.36035 6.51465C8.62467 6.38704 8.90039 6.29134 9.1875 6.22754C9.47461 6.15918 9.76628 6.125 10.0625 6.125C10.5182 6.125 10.9557 6.2002 11.375 6.35059V4.375H1.75V10.5H6.14551ZM10.0625 13.125C10.4863 13.125 10.8828 13.0452 11.252 12.8857C11.6257 12.7217 11.9492 12.5029 12.2227 12.2295C12.5007 11.9515 12.7194 11.6279 12.8789 11.2588C13.043 10.8851 13.125 10.4863 13.125 10.0625C13.125 9.63867 13.043 9.24219 12.8789 8.87305C12.7194 8.49935 12.5007 8.17578 12.2227 7.90234C11.9492 7.62435 11.6257 7.4056 11.252 7.24609C10.8828 7.08203 10.4863 7 10.0625 7C9.63867 7 9.23991 7.08203 8.86621 7.24609C8.49707 7.4056 8.1735 7.62435 7.89551 7.90234C7.62207 8.17578 7.40332 8.49935 7.23926 8.87305C7.07975 9.24219 7 9.63867 7 10.0625C7 10.4863 7.07975 10.8851 7.23926 11.2588C7.40332 11.6279 7.62207 11.9515 7.89551 12.2295C8.1735 12.5029 8.49707 12.7217 8.86621 12.8857C9.23991 13.0452 9.63867 13.125 10.0625 13.125ZM10.5 9.625H11.8125V10.5H9.625V7.875H10.5V9.625ZM2.625 7H3.5V7.875H2.625V7ZM4.375 7H5.25V7.875H4.375V7ZM4.375 5.25H5.25V6.125H4.375V5.25ZM4.375 8.75H5.25V9.625H4.375V8.75ZM7 6.125H6.125V5.25H7V6.125ZM8.75 6.125H7.875V5.25H8.75V6.125ZM2.625 5.25H3.5V6.125H2.625V5.25Z" fill="black"/>
</svg>
