<svg width="14" height="8" viewBox="0 0 14 8" fill="none" xmlns="http://www.w3.org/2000/svg">
<path opacity="0.5" d="M7 0.5C7.68359 0.5 8.34896 0.588867 8.99609 0.766602C9.64323 0.944336 10.263 1.19043 10.8555 1.50488C11.4525 1.81478 12.013 2.18392 12.5371 2.6123C13.0658 3.04069 13.5534 3.50326 14 4C13.5534 4.5013 13.0658 4.96615 12.5371 5.39453C12.013 5.81836 11.4525 6.1875 10.8555 6.50195C10.263 6.81185 9.64323 7.05566 8.99609 7.2334C8.34896 7.41113 7.68359 7.5 7 7.5C6.31641 7.5 5.65104 7.41113 5.00391 7.2334C4.35677 7.05566 3.7347 6.81185 3.1377 6.50195C2.54525 6.1875 1.9847 5.81836 1.45605 5.39453C0.927409 4.96615 0.442057 4.5013 0 4C0.442057 3.50326 0.927409 3.04069 1.45605 2.6123C1.9847 2.18392 2.54525 1.81478 3.1377 1.50488C3.7347 1.19043 4.35677 0.944336 5.00391 0.766602C5.65104 0.588867 6.31641 0.5 7 0.5ZM9.625 4C9.625 3.63997 9.55436 3.30046 9.41309 2.98145C9.27637 2.66243 9.08952 2.38444 8.85254 2.14746C8.61556 1.91048 8.33757 1.72363 8.01855 1.58691C7.69954 1.44564 7.36003 1.375 7 1.375C6.63997 1.375 6.30046 1.44564 5.98145 1.58691C5.66243 1.72363 5.38444 1.91048 5.14746 2.14746C4.91048 2.38444 4.72135 2.66243 4.58008 2.98145C4.44336 3.30046 4.375 3.63997 4.375 4C4.375 4.36003 4.44336 4.69954 4.58008 5.01855C4.72135 5.33757 4.91048 5.61556 5.14746 5.85254C5.38444 6.08952 5.66243 6.27865 5.98145 6.41992C6.30046 6.55664 6.63997 6.625 7 6.625C7.36003 6.625 7.69954 6.55664 8.01855 6.41992C8.33757 6.27865 8.61556 6.08952 8.85254 5.85254C9.08952 5.61556 9.27637 5.33757 9.41309 5.01855C9.55436 4.69954 9.625 4.36003 9.625 4ZM1.20996 4C1.63835 4.41471 2.09408 4.79525 2.57715 5.1416C3.06022 5.4834 3.57747 5.77051 4.12891 6.00293C3.92383 5.71126 3.7666 5.39453 3.65723 5.05273C3.55241 4.70638 3.5 4.35547 3.5 4C3.5 3.64453 3.55241 3.2959 3.65723 2.9541C3.7666 2.60775 3.92383 2.28874 4.12891 1.99707C3.57747 2.22949 3.06022 2.51888 2.57715 2.86523C2.09408 3.20703 1.63835 3.58529 1.20996 4ZM9.87109 6.00293C10.4225 5.77051 10.9398 5.4834 11.4229 5.1416C11.9059 4.79525 12.3617 4.41471 12.79 4C12.3617 3.58529 11.9059 3.20703 11.4229 2.86523C10.9398 2.51888 10.4225 2.22949 9.87109 1.99707C10.0762 2.28874 10.2311 2.60775 10.3359 2.9541C10.4453 3.2959 10.5 3.64453 10.5 4C10.5 4.35547 10.4453 4.70638 10.3359 5.05273C10.2311 5.39453 10.0762 5.71126 9.87109 6.00293ZM7 4.875C6.87695 4.875 6.76302 4.85221 6.6582 4.80664C6.55339 4.76107 6.45996 4.69954 6.37793 4.62207C6.30046 4.54004 6.23893 4.44661 6.19336 4.3418C6.14779 4.23698 6.125 4.12305 6.125 4C6.125 3.87695 6.14779 3.76302 6.19336 3.6582C6.23893 3.55339 6.30046 3.46224 6.37793 3.38477C6.45996 3.30273 6.55339 3.23893 6.6582 3.19336C6.76302 3.14779 6.87695 3.125 7 3.125C7.12305 3.125 7.23698 3.14779 7.3418 3.19336C7.44661 3.23893 7.53776 3.30273 7.61523 3.38477C7.69727 3.46224 7.76107 3.55339 7.80664 3.6582C7.85221 3.76302 7.875 3.87695 7.875 4C7.875 4.12305 7.85221 4.23698 7.80664 4.3418C7.76107 4.44661 7.69727 4.54004 7.61523 4.62207C7.53776 4.69954 7.44661 4.76107 7.3418 4.80664C7.23698 4.85221 7.12305 4.875 7 4.875Z" fill="black"/>
</svg>
