<svg width="49" height="49" viewBox="0 0 49 49" fill="none" xmlns="http://www.w3.org/2000/svg">
<g clip-path="url(#clip0)">
<path d="M33.6875 34.4722C33.1589 34.4722 32.7305 34.9018 32.7305 35.4311C32.7305 35.9603 33.1589 36.39 33.6875 36.39C34.2157 36.39 34.6445 35.9603 34.6445 35.4311C34.6445 34.9018 34.2157 34.4722 33.6875 34.4722Z" fill="#333333"/>
<path d="M25.457 17.5959C25.457 17.0662 25.0282 16.637 24.5 16.637C23.9718 16.637 23.543 17.0662 23.543 17.5959C23.543 18.1251 23.9718 18.5548 24.5 18.5548C25.0282 18.5548 25.457 18.1251 25.457 17.5959Z" fill="#333333"/>
<path d="M15.3125 36.39C15.8407 36.39 16.2695 35.9603 16.2695 35.4311C16.2695 34.9018 15.8407 34.4722 15.3125 34.4722C14.7843 34.4722 14.3555 34.9018 14.3555 35.4311C14.3555 35.9603 14.7843 36.39 15.3125 36.39Z" fill="#333333"/>
<path d="M48.4314 40.9466L43.2575 38.6434V17.5958C43.2575 17.216 43.0306 16.8643 42.6698 16.7107L25.4571 9.29304V2.25334C25.4571 1.72369 25.0283 1.29443 24.5 1.29443C23.9714 1.29443 23.543 1.72369 23.543 2.25334V9.29304L6.33029 16.7107C5.98822 16.853 5.74261 17.2003 5.74261 17.5958V38.6434L0.568659 40.9466C0.0856575 41.162 -0.131917 41.7284 0.0826668 42.2123C0.295756 42.6932 0.859507 42.9157 1.34587 42.6992L6.70562 40.3132L24.1221 47.8185C24.3524 47.9178 24.6339 47.9238 24.8784 47.8185L42.2945 40.3132L47.6542 42.6992C48.1425 42.9165 48.7051 42.6914 48.9174 42.2123C49.132 41.7284 48.9144 41.162 48.4314 40.9466ZM23.543 11.3809V13.7602C23.543 14.2895 23.9714 14.7191 24.5 14.7191C25.0283 14.7191 25.4571 14.2895 25.4571 13.7602V11.3809L39.8783 17.5958L24.5 24.2231L9.12175 17.5958L23.543 11.3809ZM12.6893 36.5997C12.4744 36.1158 11.9087 35.8981 11.4261 36.1128L7.6563 37.7912V19.0518L23.543 25.8982V45.4816L9.08848 39.2524L12.2033 37.8658C12.6863 37.6504 12.9039 37.0837 12.6893 36.5997ZM25.4571 45.4816V25.8982L41.3434 19.0518V37.7912L37.574 36.1131C37.0906 35.8981 36.5254 36.1158 36.3108 36.6001C36.0962 37.084 36.3138 37.6504 36.7968 37.8658L39.9116 39.2524L25.4571 45.4816Z" fill="#333333"/>
</g>
<defs>
<clipPath id="clip0">
<rect width="49" height="49" fill="white"/>
</clipPath>
</defs>
</svg>
