<svg width="49" height="49" viewBox="0 0 49 49" fill="none" xmlns="http://www.w3.org/2000/svg">
<path d="M36.2423 3.80167C35.8494 1.87631 34.1437 0.422363 32.1034 0.422363C31.6363 0.422363 31.2586 0.800001 31.2586 1.26719C31.2586 1.73438 31.6363 2.11202 32.1034 2.11202C33.5008 2.11202 34.6379 3.24916 34.6379 4.6465C34.6379 6.04385 33.5008 7.18098 32.1034 7.18098C31.6363 7.18098 31.2586 7.55862 31.2586 8.02581C31.2586 8.493 31.6363 8.87064 32.1034 8.87064C34.1429 8.87064 35.8494 7.41669 36.2423 5.49133H47.3103V13.0948H1.68966V5.49133H13.5172H16.0517C16.5189 5.49133 16.8966 5.11369 16.8966 4.6465C16.8966 4.17931 16.5189 3.80167 16.0517 3.80167H14.5175C14.8673 2.81998 15.7966 2.11202 16.8966 2.11202C18.2939 2.11202 19.431 3.24916 19.431 4.6465C19.431 6.04385 18.2939 7.18098 16.8966 7.18098C16.4294 7.18098 16.0517 7.55862 16.0517 8.02581C16.0517 8.493 16.4294 8.87064 16.8966 8.87064C19.2257 8.87064 21.1207 6.97569 21.1207 4.6465C21.1207 2.31731 19.2257 0.422363 16.8966 0.422363C14.8571 0.422363 13.1506 1.87631 12.7577 3.80167H0V14.7844V48.5775H49V14.7844V3.80167H36.2423ZM47.3103 46.8879H1.68966V14.7844H47.3103V46.8879Z" fill="#333333"/>
<path d="M21.9649 2.11202C23.3623 2.11202 24.4994 3.24916 24.4994 4.6465C24.4994 6.04385 23.3623 7.18098 21.9649 7.18098C21.4978 7.18098 21.1201 7.55862 21.1201 8.02581C21.1201 8.493 21.4978 8.87064 21.9649 8.87064C24.2941 8.87064 26.1891 6.97569 26.1891 4.6465C26.1891 2.31731 24.2941 0.422363 21.9649 0.422363C21.4978 0.422363 21.1201 0.800001 21.1201 1.26719C21.1201 1.73438 21.4978 2.11202 21.9649 2.11202Z" fill="#333333"/>
<path d="M27.0343 2.11202C28.4316 2.11202 29.5688 3.24916 29.5688 4.6465C29.5688 6.04385 28.4316 7.18098 27.0343 7.18098C26.5671 7.18098 26.1895 7.55862 26.1895 8.02581C26.1895 8.493 26.5671 8.87064 27.0343 8.87064C29.3635 8.87064 31.2584 6.97569 31.2584 4.6465C31.2584 2.31731 29.3635 0.422363 27.0343 0.422363C26.5671 0.422363 26.1895 0.800001 26.1895 1.26719C26.1895 1.73438 26.5671 2.11202 27.0343 2.11202Z" fill="#333333"/>
<path d="M18.586 21.5432C19.0526 21.5432 19.4309 21.1649 19.4309 20.6983C19.4309 20.2318 19.0526 19.8535 18.586 19.8535C18.1195 19.8535 17.7412 20.2318 17.7412 20.6983C17.7412 21.1649 18.1195 21.5432 18.586 21.5432Z" fill="#333333"/>
<path d="M24.5001 21.5432C24.9667 21.5432 25.3449 21.1649 25.3449 20.6983C25.3449 20.2318 24.9667 19.8535 24.5001 19.8535C24.0335 19.8535 23.6553 20.2318 23.6553 20.6983C23.6553 21.1649 24.0335 21.5432 24.5001 21.5432Z" fill="#333333"/>
<path d="M30.4142 21.5432C30.8807 21.5432 31.259 21.1649 31.259 20.6983C31.259 20.2318 30.8807 19.8535 30.4142 19.8535C29.9476 19.8535 29.5693 20.2318 29.5693 20.6983C29.5693 21.1649 29.9476 21.5432 30.4142 21.5432Z" fill="#333333"/>
<path d="M36.3273 21.5432C36.7938 21.5432 37.1721 21.1649 37.1721 20.6983C37.1721 20.2318 36.7938 19.8535 36.3273 19.8535C35.8607 19.8535 35.4824 20.2318 35.4824 20.6983C35.4824 21.1649 35.8607 21.5432 36.3273 21.5432Z" fill="#333333"/>
<path d="M42.2413 21.5432C42.7079 21.5432 43.0861 21.1649 43.0861 20.6983C43.0861 20.2318 42.7079 19.8535 42.2413 19.8535C41.7747 19.8535 41.3965 20.2318 41.3965 20.6983C41.3965 21.1649 41.7747 21.5432 42.2413 21.5432Z" fill="#333333"/>
<path d="M6.75889 28.3017C7.22548 28.3017 7.60372 27.9235 7.60372 27.4569C7.60372 26.9903 7.22548 26.6121 6.75889 26.6121C6.2923 26.6121 5.91406 26.9903 5.91406 27.4569C5.91406 27.9235 6.2923 28.3017 6.75889 28.3017Z" fill="#333333"/>
<path d="M12.673 28.3017C13.1395 28.3017 13.5178 27.9235 13.5178 27.4569C13.5178 26.9903 13.1395 26.6121 12.673 26.6121C12.2064 26.6121 11.8281 26.9903 11.8281 27.4569C11.8281 27.9235 12.2064 28.3017 12.673 28.3017Z" fill="#333333"/>
<path d="M18.586 28.3017C19.0526 28.3017 19.4309 27.9235 19.4309 27.4569C19.4309 26.9903 19.0526 26.6121 18.586 26.6121C18.1195 26.6121 17.7412 26.9903 17.7412 27.4569C17.7412 27.9235 18.1195 28.3017 18.586 28.3017Z" fill="#333333"/>
<path d="M24.5001 28.3017C24.9667 28.3017 25.3449 27.9235 25.3449 27.4569C25.3449 26.9903 24.9667 26.6121 24.5001 26.6121C24.0335 26.6121 23.6553 26.9903 23.6553 27.4569C23.6553 27.9235 24.0335 28.3017 24.5001 28.3017Z" fill="#333333"/>
<path d="M30.4142 28.3017C30.8807 28.3017 31.259 27.9235 31.259 27.4569C31.259 26.9903 30.8807 26.6121 30.4142 26.6121C29.9476 26.6121 29.5693 26.9903 29.5693 27.4569C29.5693 27.9235 29.9476 28.3017 30.4142 28.3017Z" fill="#333333"/>
<path d="M36.3273 28.3017C36.7938 28.3017 37.1721 27.9235 37.1721 27.4569C37.1721 26.9903 36.7938 26.6121 36.3273 26.6121C35.8607 26.6121 35.4824 26.9903 35.4824 27.4569C35.4824 27.9235 35.8607 28.3017 36.3273 28.3017Z" fill="#333333"/>
<path d="M42.2413 28.3017C42.7079 28.3017 43.0861 27.9235 43.0861 27.4569C43.0861 26.9903 42.7079 26.6121 42.2413 26.6121C41.7747 26.6121 41.3965 26.9903 41.3965 27.4569C41.3965 27.9235 41.7747 28.3017 42.2413 28.3017Z" fill="#333333"/>
<path d="M6.75889 34.2155C7.22548 34.2155 7.60372 33.8373 7.60372 33.3707C7.60372 32.9041 7.22548 32.5259 6.75889 32.5259C6.2923 32.5259 5.91406 32.9041 5.91406 33.3707C5.91406 33.8373 6.2923 34.2155 6.75889 34.2155Z" fill="#333333"/>
<path d="M12.673 34.2155C13.1395 34.2155 13.5178 33.8373 13.5178 33.3707C13.5178 32.9041 13.1395 32.5259 12.673 32.5259C12.2064 32.5259 11.8281 32.9041 11.8281 33.3707C11.8281 33.8373 12.2064 34.2155 12.673 34.2155Z" fill="#333333"/>
<path d="M18.586 34.2155C19.0526 34.2155 19.4309 33.8373 19.4309 33.3707C19.4309 32.9041 19.0526 32.5259 18.586 32.5259C18.1195 32.5259 17.7412 32.9041 17.7412 33.3707C17.7412 33.8373 18.1195 34.2155 18.586 34.2155Z" fill="#333333"/>
<path d="M24.5001 34.2155C24.9667 34.2155 25.3449 33.8373 25.3449 33.3707C25.3449 32.9041 24.9667 32.5259 24.5001 32.5259C24.0335 32.5259 23.6553 32.9041 23.6553 33.3707C23.6553 33.8373 24.0335 34.2155 24.5001 34.2155Z" fill="#333333"/>
<path d="M30.4142 34.2155C30.8807 34.2155 31.259 33.8373 31.259 33.3707C31.259 32.9041 30.8807 32.5259 30.4142 32.5259C29.9476 32.5259 29.5693 32.9041 29.5693 33.3707C29.5693 33.8373 29.9476 34.2155 30.4142 34.2155Z" fill="#333333"/>
<path d="M36.3273 34.2155C36.7938 34.2155 37.1721 33.8373 37.1721 33.3707C37.1721 32.9041 36.7938 32.5259 36.3273 32.5259C35.8607 32.5259 35.4824 32.9041 35.4824 33.3707C35.4824 33.8373 35.8607 34.2155 36.3273 34.2155Z" fill="#333333"/>
<path d="M42.2413 34.2155C42.7079 34.2155 43.0861 33.8373 43.0861 33.3707C43.0861 32.9041 42.7079 32.5259 42.2413 32.5259C41.7747 32.5259 41.3965 32.9041 41.3965 33.3707C41.3965 33.8373 41.7747 34.2155 42.2413 34.2155Z" fill="#333333"/>
<path d="M6.75889 40.9741C7.22548 40.9741 7.60372 40.5958 7.60372 40.1293C7.60372 39.6627 7.22548 39.2844 6.75889 39.2844C6.2923 39.2844 5.91406 39.6627 5.91406 40.1293C5.91406 40.5958 6.2923 40.9741 6.75889 40.9741Z" fill="#333333"/>
<path d="M12.673 40.9741C13.1395 40.9741 13.5178 40.5958 13.5178 40.1293C13.5178 39.6627 13.1395 39.2844 12.673 39.2844C12.2064 39.2844 11.8281 39.6627 11.8281 40.1293C11.8281 40.5958 12.2064 40.9741 12.673 40.9741Z" fill="#333333"/>
<path d="M18.586 40.9741C19.0526 40.9741 19.4309 40.5958 19.4309 40.1293C19.4309 39.6627 19.0526 39.2844 18.586 39.2844C18.1195 39.2844 17.7412 39.6627 17.7412 40.1293C17.7412 40.5958 18.1195 40.9741 18.586 40.9741Z" fill="#333333"/>
<path d="M24.5001 40.9741C24.9667 40.9741 25.3449 40.5958 25.3449 40.1293C25.3449 39.6627 24.9667 39.2844 24.5001 39.2844C24.0335 39.2844 23.6553 39.6627 23.6553 40.1293C23.6553 40.5958 24.0335 40.9741 24.5001 40.9741Z" fill="#333333"/>
<path d="M30.4142 40.9741C30.8807 40.9741 31.259 40.5958 31.259 40.1293C31.259 39.6627 30.8807 39.2844 30.4142 39.2844C29.9476 39.2844 29.5693 39.6627 29.5693 40.1293C29.5693 40.5958 29.9476 40.9741 30.4142 40.9741Z" fill="#333333"/>
</svg>
