<svg width="49" height="49" viewBox="0 0 49 49" fill="none" xmlns="http://www.w3.org/2000/svg">
<path d="M46.0351 20.4961H36.3281C35.8355 20.4961 35.4374 20.8942 35.4374 21.3867C35.4374 21.8792 35.8355 22.2774 36.3281 22.2774H44.4346L47.0166 46.3245H2.01996L5.05078 22.2774H13.1716C13.6641 22.2774 14.0622 21.8792 14.0622 21.3867C14.0622 20.8942 13.6641 20.4961 13.1716 20.4961H3.47971L0 48.1057H49L46.0351 20.4961Z" fill="#333333"/>
<path d="M23.739 34.7061C23.608 34.7836 23.4682 34.8522 23.3426 34.9333C23.1467 35.0597 22.9552 35.1924 22.7673 35.3296C22.371 35.6208 22.2855 36.1784 22.5758 36.5747C22.7504 36.8125 23.0211 36.9381 23.2954 36.9381C23.478 36.9381 23.6624 36.882 23.8218 36.7662C23.9803 36.6495 24.1415 36.5373 24.3099 36.4286C24.5958 36.2434 24.8995 36.0697 25.213 35.9112C25.6298 35.7001 25.799 35.2067 25.6244 34.781C25.6316 34.7738 25.6405 34.7685 25.6467 34.7614C27.2579 33.0549 32.6872 26.6602 34.9351 16.0064C35.3911 13.8457 35.4936 11.7723 35.2397 9.8441C34.4738 3.98818 30.8355 0.892334 24.7187 0.892334C18.6036 0.892334 14.9653 3.98818 14.1976 9.8441C13.9447 11.7732 14.0471 13.8466 14.5031 16.0064C16.7288 26.5568 22.0726 32.9267 23.739 34.7061ZM15.9637 10.0766C16.6166 5.09613 19.4808 2.67449 24.7196 2.67449C29.9592 2.67449 32.8225 5.09613 33.4745 10.0766C33.7016 11.8044 33.6063 13.6774 33.193 15.6403C31.1722 25.2173 26.3539 31.2941 24.7196 33.1377C23.0835 31.2923 18.266 25.2129 16.2461 15.6403C15.8319 13.6774 15.7375 11.8053 15.9637 10.0766Z" fill="#333333"/>
<path d="M24.7194 17.7458C28.3273 17.7458 31.262 14.8112 31.262 11.2032C31.262 7.59528 28.3273 4.66064 24.7194 4.66064C21.1114 4.66064 18.1768 7.59528 18.1768 11.2032C18.1768 14.8112 21.1114 17.7458 24.7194 17.7458ZM24.7194 6.4428C27.3441 6.4428 29.4807 8.57854 29.4807 11.2041C29.4807 13.8297 27.3449 15.9655 24.7194 15.9655C22.0938 15.9655 19.958 13.8297 19.958 11.2041C19.958 8.57854 22.0947 6.4428 24.7194 6.4428Z" fill="#333333"/>
<path d="M27.9908 33.1048C27.5098 33.2063 27.2034 33.6801 27.3059 34.1619C27.3949 34.5805 27.7645 34.8664 28.176 34.8664C28.2375 34.8664 28.3007 34.8602 28.363 34.8468C28.885 34.7364 29.4505 34.6429 30.0428 34.5681C30.5309 34.5084 30.8782 34.0631 30.8167 33.575C30.7562 33.0861 30.3153 32.7334 29.8237 32.8011C29.1798 32.8803 28.5626 32.9827 27.9908 33.1048Z" fill="#333333"/>
<path d="M32.5966 33.4664C32.6162 33.9447 33.0116 34.3187 33.4854 34.3187C33.4988 34.3187 33.5112 34.3187 33.5246 34.3179L35.3068 34.2439C35.7975 34.2217 36.1787 33.8049 36.1555 33.3141C36.1333 32.8216 35.6755 32.4377 35.2257 32.4644L33.448 32.5384C32.9564 32.5589 32.5752 32.9739 32.5966 33.4664Z" fill="#333333"/>
<path d="M19.9799 37.5643C19.5221 37.9099 19.0492 38.2421 18.5727 38.5503C18.1603 38.8183 18.0427 39.3696 18.3108 39.7829C18.4809 40.0456 18.7677 40.1881 19.059 40.1881C19.2255 40.1881 19.393 40.1418 19.5435 40.0447C20.0538 39.7134 20.5624 39.3572 21.0531 38.9867C21.445 38.6901 21.5233 38.1317 21.2277 37.7389C20.9311 37.3497 20.3744 37.2677 19.9799 37.5643Z" fill="#333333"/>
<path d="M39.8284 31.6912C39.5274 31.9023 39.1364 32.0555 38.6296 32.1597C38.1478 32.2586 37.8379 32.7306 37.9376 33.2124C38.0249 33.6337 38.3954 33.9232 38.8095 33.9232C38.8692 33.9232 38.9298 33.9169 38.9903 33.9045C39.7403 33.7495 40.3495 33.5019 40.8571 33.1448L40.9765 33.0575C41.3683 32.76 41.4458 32.2016 41.1492 31.8097C40.8518 31.4178 40.2942 31.3412 39.9015 31.6369L39.8284 31.6912Z" fill="#333333"/>
<path d="M7.89128 38.6552C8.02043 38.1805 7.73899 37.6915 7.26428 37.5632C6.79313 37.4305 6.30061 37.7138 6.17236 38.1902C6.06014 38.6035 5.99334 39.0257 5.97197 39.4416C5.96752 39.544 5.96484 39.6473 5.96484 39.756C5.96573 39.9305 5.97375 40.1051 5.99067 40.2788C6.03788 40.7375 6.42441 41.0786 6.87596 41.0786C6.90535 41.0786 6.93563 41.0768 6.9677 41.0741C7.45666 41.0234 7.81291 40.5869 7.76392 40.0971C7.75146 39.9804 7.747 39.862 7.74611 39.7497C7.74611 39.6758 7.74878 39.6019 7.75235 39.5289C7.7666 39.2403 7.81291 38.9455 7.89128 38.6552Z" fill="#333333"/>
<path d="M39.8098 24.7684C39.1027 24.674 38.3813 24.7319 37.6848 24.9296C37.211 25.0623 36.9358 25.5548 37.0702 26.0278C37.1807 26.4205 37.5378 26.677 37.9261 26.677C38.0072 26.677 38.0882 26.6663 38.1684 26.6432C38.6315 26.5131 39.108 26.4722 39.5711 26.5345C40.0717 26.5969 40.5081 26.2575 40.5731 25.7712C40.639 25.2823 40.297 24.8343 39.8098 24.7684Z" fill="#333333"/>
<path d="M41.5817 29.1806C41.4366 29.6499 41.7002 30.1496 42.1696 30.2939C42.2577 30.3215 42.345 30.3339 42.4323 30.3339C42.8135 30.3339 43.1653 30.089 43.2829 29.7061C43.371 29.4228 43.4254 29.1352 43.4458 28.8484C43.4503 28.7745 43.453 28.6996 43.453 28.6257C43.453 28.2089 43.3764 27.7912 43.2259 27.386C43.0549 26.9237 42.5392 26.6904 42.0814 26.8605C41.6191 27.0315 41.3849 27.5445 41.5559 28.0049C41.6325 28.2116 41.6717 28.4209 41.6717 28.6248L41.669 28.729C41.6583 28.8769 41.6298 29.0247 41.5817 29.1806Z" fill="#333333"/>
<path d="M15.5695 40.2244C15.0475 40.4693 14.5158 40.6964 13.9895 40.9004C13.5308 41.0767 13.3028 41.5924 13.48 42.052C13.6163 42.4047 13.953 42.622 14.311 42.622C14.4179 42.622 14.5265 42.6033 14.6316 42.5623C15.1972 42.3441 15.7672 42.1001 16.3265 41.8382C16.7718 41.6298 16.9633 41.099 16.754 40.6537C16.5465 40.2075 16.0174 40.0142 15.5695 40.2244Z" fill="#333333"/>
<path d="M9.08539 36.5169C9.22879 36.5169 9.37485 36.4821 9.51112 36.4082C9.76762 36.2684 10.041 36.1811 10.3225 36.1508C10.4427 36.1366 10.5656 36.1366 10.6841 36.1526C11.1855 36.2176 11.6192 35.8738 11.6834 35.3866C11.7475 34.8986 11.4046 34.4515 10.9174 34.3873C10.652 34.3526 10.3822 34.3508 10.1239 34.3802C9.61265 34.4363 9.11924 34.5931 8.65789 34.8442C8.22593 35.0803 8.06651 35.62 8.30253 36.0519C8.46462 36.3494 8.77011 36.5169 9.08539 36.5169Z" fill="#333333"/>
<path d="M8.90019 43.5003C9.09257 43.5502 9.28851 43.5876 9.48267 43.6108C9.71067 43.6384 9.93867 43.6526 10.1676 43.6526C10.4463 43.6526 10.726 43.633 11.0048 43.5974C11.4928 43.5359 11.8393 43.0906 11.7769 42.6026C11.7146 42.1145 11.272 41.7707 10.7821 41.8304C10.4223 41.8767 10.0589 41.8874 9.69909 41.8437C9.58153 41.8286 9.46396 41.8063 9.34818 41.777C8.87169 41.6496 8.3863 41.9382 8.26161 42.4146C8.13959 42.8911 8.42459 43.3774 8.90019 43.5003Z" fill="#333333"/>
</svg>
